{
  "accessors": [
    {
      "bufferView": 1,
      "componentType": 5126,
      "count": 19035,
      "max": [
        32.484886169433594,
        31.260074615478516,
        121.42414855957031
      ],
      "min": [
        -34.48929977416992,
        -31.260074615478516,
        0.4867253303527832
      ],
      "type": "VEC3"
    },
    {
      "bufferView": 1,
      "byteOffset": 228420,
      "componentType": 5126,
      "count": 19035,
      "max": [
        0.9999732971191406,
        0.9999899864196777,
        1.0
      ],
      "min": [
        -0.9999503493309021,
        -0.9999321103096008,
        -1.0
      ],
      "type": "VEC3"
    },
    {
      "bufferView": 0,
      "componentType": 5125,
      "count": 82788,
      "type": "SCALAR"
    }
  ],
  "asset": {
    "extras": {
      "author": "Serpentr (https://sketchfab.com/Serpentr)",
      "license": "CC-BY-4.0 (http://creativecommons.org/licenses/by/4.0/)",
      "source": "https://sketchfab.com/3d-models/paimon-statue-genshin-impact-06535cad697d4d368cdd98af25397121",
      "title": "Paimon statue - Genshin Impact"
    },
    "generator": "Sketchfab-12.65.0",
    "version": "2.0"
  },
  "bufferViews": [
    {
      "buffer": 0,
      "byteLength": 331152,
      "name": "floatBufferViews",
      "target": 34963
    },
    {
      "buffer": 0,
      "byteLength": 456840,
      "byteOffset": 331152,
      "byteStride": 12,
      "name": "floatBufferViews",
      "target": 34962
    }
  ],
  "buffers": [
    {
      "byteLength": 787992,
      "uri": "scene.bin"
    }
  ],
  "materials": [
    {
      "doubleSided": true,
      "name": "Scene_-_Root",
      "pbrMetallicRoughness": {
        "metallicFactor": 0.0,
        "roughnessFactor": 0.6
      }
    }
  ],
  "meshes": [
    {
      "name": "Object_0",
      "primitives": [
        {
          "attributes": {
            "NORMAL": 1,
            "POSITION": 0
          },
          "indices": 2,
          "material": 0,
          "mode": 4
        }
      ]
    }
  ],
  "nodes": [
    {
      "children": [
        1
      ],
      "matrix": [
        1.0,
        0.0,
        0.0,
        0.0,
        0.0,
        2.220446049250313e-16,
        -1.0,
        0.0,
        0.0,
        1.0,
        2.220446049250313e-16,
        0.0,
        0.0,
        0.0,
        0.0,
        1.0
      ],
      "name": "Sketchfab_model"
    },
    {
      "children": [
        2
      ],
      "name": "paimon.stl.cleaner.materialmerger.gles"
    },
    {
      "mesh": 0,
      "name": "Object_2"
    }
  ],
  "scene": 0,
  "scenes": [
    {
      "name": "Sketchfab_Scene",
      "nodes": [
        0
      ]
    }
  ]
}
